<svg width="36" height="37" viewBox="0 0 36 37" fill="none" xmlns="http://www.w3.org/2000/svg">
<path d="M35 34.154L25.5027 24.425C27.7849 21.6183 28.923 18.0182 28.6802 14.3738C28.4373 10.7294 26.8322 7.32119 24.1988 4.85818C21.5654 2.39518 18.1064 1.06702 14.5414 1.15C10.9764 1.23298 7.57987 2.72071 5.05838 5.3037C2.53689 7.88669 1.08458 11.3661 1.00358 15.018C0.922576 18.67 2.21911 22.2133 4.62347 24.911C7.02784 27.6086 10.3549 29.2529 13.9125 29.5016C17.4702 29.7504 20.9845 28.5845 23.7244 26.2466L33.2218 35.9756L35 34.154ZM3.56016 15.3633C3.56016 13.0702 4.22397 10.8285 5.46764 8.92183C6.71132 7.01514 8.479 5.52906 10.5472 4.6515C12.6153 3.77395 14.8911 3.54434 17.0866 3.99172C19.2821 4.43909 21.2989 5.54335 22.8818 7.16485C24.4647 8.78636 25.5426 10.8523 25.9794 13.1014C26.4161 15.3505 26.1919 17.6817 25.3353 19.8003C24.4786 21.9189 23.0279 23.7297 21.1666 25.0037C19.3053 26.2777 17.1171 26.9577 14.8785 26.9577C11.8777 26.9543 9.00078 25.7317 6.8789 23.558C4.75702 21.3844 3.56349 18.4373 3.56016 15.3633Z" fill="#979797" stroke="#979797"/>
</svg>
